<svg width="194" height="108" viewBox="0 0 194 108" fill="none" xmlns="http://www.w3.org/2000/svg">
<path d="M164 32.5V14C164 8.47715 159.523 4 154 4H14C8.47715 4 4 8.47716 4 14V94C4 99.5228 8.47715 104 14 104H154C159.523 104 164 99.5228 164 94V76.5" stroke="url(#paint0_linear_922_2784)" stroke-width="8"/>
<path d="M28.416 73L44.64 36.6H52.96L69.236 73H60.396L47.084 40.864H50.412L37.048 73H28.416ZM36.528 65.2L38.764 58.804H57.484L59.772 65.2H36.528ZM74.0631 73V36.6H107.239V73H98.8671V41.54L100.791 43.464H80.5111L82.4351 41.54V73H74.0631ZM133.682 73.624C130.805 73.624 128.136 73.156 125.674 72.22C123.248 71.284 121.133 69.9667 119.33 68.268C117.562 66.5693 116.176 64.576 115.17 62.288C114.2 60 113.714 57.504 113.714 54.8C113.714 52.096 114.2 49.6 115.17 47.312C116.176 45.024 117.58 43.0307 119.382 41.332C121.185 39.6333 123.3 38.316 125.726 37.38C128.153 36.444 130.788 35.976 133.63 35.976C136.508 35.976 139.142 36.444 141.534 37.38C143.961 38.316 146.058 39.6333 147.826 41.332C149.629 43.0307 151.033 45.024 152.038 47.312C153.044 49.5653 153.546 52.0613 153.546 54.8C153.546 57.504 153.044 60.0173 152.038 62.34C151.033 64.628 149.629 66.6213 147.826 68.32C146.058 69.984 143.961 71.284 141.534 72.22C139.142 73.156 136.525 73.624 133.682 73.624ZM133.63 66.448C135.26 66.448 136.75 66.1707 138.102 65.616C139.489 65.0613 140.702 64.264 141.742 63.224C142.782 62.184 143.58 60.9533 144.134 59.532C144.724 58.1107 145.018 56.5333 145.018 54.8C145.018 53.0667 144.724 51.4893 144.134 50.068C143.58 48.6467 142.782 47.416 141.742 46.376C140.737 45.336 139.541 44.5387 138.154 43.984C136.768 43.4293 135.26 43.152 133.63 43.152C132.001 43.152 130.493 43.4293 129.106 43.984C127.754 44.5387 126.558 45.336 125.518 46.376C124.478 47.416 123.664 48.6467 123.074 50.068C122.52 51.4893 122.242 53.0667 122.242 54.8C122.242 56.4987 122.52 58.076 123.074 59.532C123.664 60.9533 124.461 62.184 125.466 63.224C126.506 64.264 127.72 65.0613 129.106 65.616C130.493 66.1707 132.001 66.448 133.63 66.448ZM183.592 73L172.256 55.476L179.068 51.368L193.16 73H183.592ZM159.932 73V36.6H168.304V73H159.932ZM165.86 58.336V51.316H178.548V58.336H165.86ZM179.848 55.736L172.1 54.8L183.904 36.6H192.796L179.848 55.736Z" fill="url(#paint1_linear_922_2784)"/>
<defs>
<linearGradient id="paint0_linear_922_2784" x1="4" y1="104" x2="190.879" y2="111.185" gradientUnits="userSpaceOnUse">
<stop stop-color="#76CFE9"/>
<stop offset="1" stop-color="#197697"/>
</linearGradient>
<linearGradient id="paint1_linear_922_2784" x1="9.5" y1="102.5" x2="194" y2="2.5" gradientUnits="userSpaceOnUse">
<stop stop-color="#76CFE9"/>
<stop offset="1" stop-color="#197697"/>
</linearGradient>
</defs>
</svg>
