<svg width="221" height="100" viewBox="0 0 221 100" fill="none" xmlns="http://www.w3.org/2000/svg">
<rect x="4" y="4" width="149" height="92" rx="6" stroke="url(#paint0_linear_971_3028)" stroke-width="8"/>
<rect x="19" y="24" width="202" height="54" fill="white"/>
<path d="M21.416 69L37.64 32.6H45.96L62.236 69H53.396L40.084 36.864H43.412L30.048 69H21.416ZM29.528 61.2L31.764 54.804H50.484L52.772 61.2H29.528ZM67.0631 69V32.6H84.0151C88.2444 32.6 91.5377 33.4147 93.8951 35.044C96.2524 36.6733 97.4311 38.996 97.4311 42.012C97.4311 44.9933 96.3217 47.316 94.1031 48.98C91.8844 50.6093 88.9377 51.424 85.2631 51.424L86.2511 49.24C90.3417 49.24 93.5137 50.0547 95.7671 51.684C98.0204 53.3133 99.1471 55.6707 99.1471 58.756C99.1471 61.9453 97.9337 64.4587 95.5071 66.296C93.1151 68.0987 89.6137 69 85.0031 69H67.0631ZM75.4351 62.76H84.6911C86.6324 62.76 88.1057 62.3787 89.1111 61.616C90.1164 60.8533 90.6191 59.6747 90.6191 58.08C90.6191 56.5547 90.1164 55.428 89.1111 54.7C88.1057 53.9373 86.6324 53.556 84.6911 53.556H75.4351V62.76ZM75.4351 47.68H83.2871C85.1244 47.68 86.5111 47.316 87.4471 46.588C88.3831 45.8253 88.8511 44.716 88.8511 43.26C88.8511 41.804 88.3831 40.712 87.4471 39.984C86.5111 39.2213 85.1244 38.84 83.2871 38.84H75.4351V47.68ZM105.809 69V32.6H114.181V56.312L131.549 32.6H139.453V69H131.133V45.34L113.765 69H105.809ZM148.516 69V32.6H155.484L170.98 58.288H167.288L182.524 32.6H189.492L189.544 69H181.64L181.588 44.716H183.096L170.876 65.152H167.132L154.652 44.716H156.42V69H148.516Z" fill="url(#paint1_linear_971_3028)"/>
<defs>
<linearGradient id="paint0_linear_971_3028" x1="3.01611e-08" y1="100" x2="183.944" y2="107.776" gradientUnits="userSpaceOnUse">
<stop stop-color="#9AAED9"/>
<stop offset="1" stop-color="#56678C"/>
</linearGradient>
<linearGradient id="paint1_linear_971_3028" x1="21" y1="75" x2="223.449" y2="93.969" gradientUnits="userSpaceOnUse">
<stop stop-color="#9AAED9"/>
<stop offset="1" stop-color="#56678C"/>
</linearGradient>
</defs>
</svg>
