<svg width="225" height="108" viewBox="0 0 225 108" fill="none" xmlns="http://www.w3.org/2000/svg">
<path d="M122 31V14C122 8.47715 117.523 4 112 4H14C8.47715 4 4 8.47716 4 14V94C4 99.5228 8.47715 104 14 104H112C117.523 104 122 99.5228 122 94V77.5" stroke="url(#paint0_linear_922_2789)" stroke-width="8"/>
<path d="M57.08 73L45.744 55.476L52.556 51.368L66.648 73H57.08ZM33.42 73V36.6H41.792V73H33.42ZM39.348 58.336V51.316H52.036V58.336H39.348ZM53.336 55.736L45.588 54.8L57.392 36.6H66.284L53.336 55.736ZM65.7246 73L81.9486 36.6H90.2686L106.545 73H97.7046L84.3926 40.864H87.7206L74.3566 73H65.7246ZM73.8366 65.2L76.0726 58.804H94.7926L97.0806 65.2H73.8366ZM117.396 73V41.54L119.32 43.464H105.8V36.6H137.364V43.464H123.844L125.716 41.54V73H117.396ZM159.565 73.624C156.688 73.624 154.018 73.156 151.557 72.22C149.13 71.284 147.016 69.9667 145.213 68.268C143.445 66.5693 142.058 64.576 141.053 62.288C140.082 60 139.597 57.504 139.597 54.8C139.597 52.096 140.082 49.6 141.053 47.312C142.058 45.024 143.462 43.0307 145.265 41.332C147.068 39.6333 149.182 38.316 151.609 37.38C154.036 36.444 156.67 35.976 159.513 35.976C162.39 35.976 165.025 36.444 167.417 37.38C169.844 38.316 171.941 39.6333 173.709 41.332C175.512 43.0307 176.916 45.024 177.921 47.312C178.926 49.5653 179.429 52.0613 179.429 54.8C179.429 57.504 178.926 60.0173 177.921 62.34C176.916 64.628 175.512 66.6213 173.709 68.32C171.941 69.984 169.844 71.284 167.417 72.22C165.025 73.156 162.408 73.624 159.565 73.624ZM159.513 66.448C161.142 66.448 162.633 66.1707 163.985 65.616C165.372 65.0613 166.585 64.264 167.625 63.224C168.665 62.184 169.462 60.9533 170.017 59.532C170.606 58.1107 170.901 56.5333 170.901 54.8C170.901 53.0667 170.606 51.4893 170.017 50.068C169.462 48.6467 168.665 47.416 167.625 46.376C166.62 45.336 165.424 44.5387 164.037 43.984C162.65 43.4293 161.142 43.152 159.513 43.152C157.884 43.152 156.376 43.4293 154.989 43.984C153.637 44.5387 152.441 45.336 151.401 46.376C150.361 47.416 149.546 48.6467 148.957 50.068C148.402 51.4893 148.125 53.0667 148.125 54.8C148.125 56.4987 148.402 58.076 148.957 59.532C149.546 60.9533 150.344 62.184 151.349 63.224C152.389 64.264 153.602 65.0613 154.989 65.616C156.376 66.1707 157.884 66.448 159.513 66.448ZM209.031 69.256V43.464H196.551L196.395 48.768C196.291 51.0213 196.135 53.1533 195.927 55.164C195.754 57.1747 195.476 59.012 195.095 60.676C194.714 62.3053 194.211 63.692 193.587 64.836C192.998 65.98 192.252 66.7947 191.351 67.28L182.355 66.136C183.603 66.1707 184.626 65.7373 185.423 64.836C186.255 63.9347 186.914 62.6693 187.399 61.04C187.884 59.376 188.231 57.4347 188.439 55.216C188.682 52.9973 188.855 50.588 188.959 47.988L189.375 36.6H217.351V69.256H209.031ZM181.159 80.54L181.211 66.136H222.447V80.54H214.647V73H188.959V80.54H181.159Z" fill="url(#paint1_linear_922_2789)"/>
<defs>
<linearGradient id="paint0_linear_922_2789" x1="4.00002" y1="104" x2="192.953" y2="155.272" gradientUnits="userSpaceOnUse">
<stop stop-color="#90C0C4"/>
<stop offset="1" stop-color="#488589"/>
</linearGradient>
<linearGradient id="paint1_linear_922_2789" x1="29" y1="79" x2="226.929" y2="60.7296" gradientUnits="userSpaceOnUse">
<stop stop-color="#90C0C4"/>
<stop offset="1" stop-color="#488589"/>
</linearGradient>
</defs>
</svg>
