<svg width="127" height="127" viewBox="0 0 127 127" fill="none" xmlns="http://www.w3.org/2000/svg">
<g clip-path="url(#clip0_461_1595)">
<path d="M96.5676 70.9613C92.4084 79.3909 86.7727 87.7888 81.0101 95.3294C75.5436 102.438 69.6984 109.248 63.5 115.729C57.3015 109.248 51.4563 102.438 45.9899 95.3294C40.2273 87.7888 34.5916 79.3909 30.4324 70.9613C26.2255 62.4443 23.8125 54.4671 23.8125 47.625C23.8125 37.0992 27.9938 27.0045 35.4367 19.5617C42.8795 12.1188 52.9742 7.9375 63.5 7.9375C74.0258 7.9375 84.1205 12.1188 91.5633 19.5617C99.0062 27.0045 103.188 37.0992 103.188 47.625C103.188 54.4671 100.767 62.4443 96.5676 70.9613ZM63.5 127C63.5 127 111.125 81.8674 111.125 47.625C111.125 34.9941 106.107 22.8805 97.176 13.949C88.2445 5.01762 76.1309 0 63.5 0C50.8691 0 38.7555 5.01762 29.824 13.949C20.8926 22.8805 15.875 34.9941 15.875 47.625C15.875 81.8674 63.5 127 63.5 127Z" fill="#899cc5"/>
<path d="M96.5676 70.9613C92.4084 79.3909 86.7727 87.7888 81.0101 95.3294C75.5436 102.438 69.6984 109.248 63.5 115.729C57.3015 109.248 51.4563 102.438 45.9899 95.3294C40.2273 87.7888 34.5916 79.3909 30.4324 70.9613C26.2255 62.4443 23.8125 54.4671 23.8125 47.625C23.8125 37.0992 27.9938 27.0045 35.4367 19.5617C42.8795 12.1188 52.9742 7.9375 63.5 7.9375C74.0258 7.9375 84.1205 12.1188 91.5633 19.5617C99.0062 27.0045 103.188 37.0992 103.188 47.625C103.188 54.4671 100.767 62.4443 96.5676 70.9613ZM63.5 127C63.5 127 111.125 81.8674 111.125 47.625C111.125 34.9941 106.107 22.8805 97.176 13.949C88.2445 5.01762 76.1309 0 63.5 0C50.8691 0 38.7555 5.01762 29.824 13.949C20.8926 22.8805 15.875 34.9941 15.875 47.625C15.875 81.8674 63.5 127 63.5 127Z" fill="black" fill-opacity="0.2"/>
<path d="M96.5676 70.9613C92.4084 79.3909 86.7727 87.7888 81.0101 95.3294C75.5436 102.438 69.6984 109.248 63.5 115.729C57.3015 109.248 51.4563 102.438 45.9899 95.3294C40.2273 87.7888 34.5916 79.3909 30.4324 70.9613C26.2255 62.4443 23.8125 54.4671 23.8125 47.625C23.8125 37.0992 27.9938 27.0045 35.4367 19.5617C42.8795 12.1188 52.9742 7.9375 63.5 7.9375C74.0258 7.9375 84.1205 12.1188 91.5633 19.5617C99.0062 27.0045 103.188 37.0992 103.188 47.625C103.188 54.4671 100.767 62.4443 96.5676 70.9613Z" fill="white"/>
</g>
<defs>
<clipPath id="clip0_461_1595">
<rect width="127" height="127" fill="white"/>
</clipPath>
</defs>
</svg>
